<svg width="70" height="70" viewBox="0 0 70 70" fill="none" xmlns="http://www.w3.org/2000/svg">
<rect width="70" height="70" fill="#010C17"/>
<path d="M40.7711 35.1632H46.6145V46.9985C43.3462 50.5969 38.6748 52.3962 32.6003 52.3962C27.4833 52.3962 23.1915 50.7125 19.7251 47.3451C16.2917 43.9778 14.575 39.719 14.575 34.569C14.575 29.4189 16.3247 25.1271 19.8242 21.6938C23.3566 18.2604 27.6153 16.5437 32.6003 16.5437C37.5853 16.5437 41.7285 17.9963 45.0298 20.9014L41.9101 25.3582C40.5565 24.2028 39.1865 23.4105 37.7999 22.9813C36.4464 22.5191 34.8617 22.288 33.046 22.288C29.5466 22.288 26.6084 23.427 24.2314 25.7049C21.8545 27.9498 20.666 30.921 20.666 34.6185C20.666 38.283 21.8215 41.2377 24.1324 43.4826C26.4433 45.6945 29.233 46.8004 32.5013 46.8004C35.8026 46.8004 38.5592 46.0906 40.7711 44.671V35.1632ZM53.7868 51.3067C53.0935 50.5804 52.7468 49.7056 52.7468 48.6822C52.7468 47.6587 53.0935 46.8004 53.7868 46.1071C54.513 45.3808 55.3879 45.0177 56.4113 45.0177C57.4347 45.0177 58.3096 45.3808 59.0359 46.1071C59.7622 46.8004 60.1253 47.6587 60.1253 48.6822C60.1253 49.7056 59.7622 50.5804 59.0359 51.3067C58.3096 52.033 57.4347 52.3962 56.4113 52.3962C55.3879 52.3962 54.513 52.033 53.7868 51.3067Z" fill="white"/>
</svg>
